<svg width="45" height="40" viewBox="0 0 45 40" fill="none" xmlns="http://www.w3.org/2000/svg">
<path d="M5.70042 39.7936C4.53926 39.548 2.59556 38.2462 1.686 37.1049C1.30136 36.6223 0.763551 35.6484 0.490886 34.9407C0.0744635 33.8599 -0.00411616 33.394 0.000110652 32.0307C0.007817 29.5581 0.699329 28.151 2.18287 27.5896C2.88882 27.3224 3.93517 27.2895 8.39189 27.3943L13.7519 27.5203L14.6328 26.8572C15.7656 26.0045 16.3449 25.0206 16.5897 23.5336C16.7578 22.5121 16.743 22.201 16.4849 21.3399C15.929 19.4851 14.965 18.919 10.759 17.9775C9.13572 17.6141 7.30143 17.1379 6.68277 16.9192C3.80863 15.9033 2.46756 13.755 2.67082 10.4924C2.86063 7.44586 4.49746 5.1683 7.29806 4.05385C8.22422 3.68531 8.89977 3.58212 10.3551 3.5869C13.4313 3.59699 15.5168 4.68937 16.9385 7.03511L17.6581 8.22248L18.762 8.2207C21.913 8.21573 23.6482 6.61733 25.2141 2.27737C25.5997 1.20877 26.0062 0.260705 26.1175 0.170549C26.387 -0.0478736 28.2729 -0.0470937 28.2729 0.171439C28.2729 0.265731 27.6615 2.173 26.9142 4.40983C26.1669 6.64666 25.5555 8.49298 25.5554 8.51276C25.5554 8.53255 27.2727 8.51514 29.3716 8.47384L33.1878 8.39897L33.2354 11.1331L33.2831 13.8672L34.0267 12.5651C35.3633 10.2247 36.9901 9.10297 39.0575 9.09614C40.5443 9.09123 41.275 9.34614 42.313 10.2319C43.3243 11.0947 44.1316 12.6244 44.6228 14.6086C44.9749 16.0307 44.998 16.5238 44.9999 22.6518C45.0022 26.2423 44.9636 29.225 44.9169 29.28C44.8702 29.335 44.3925 29.4244 43.8554 29.4787L42.8789 29.5774V23.1603C42.8789 17.9446 42.8287 16.5278 42.6108 15.5928C41.9386 12.7085 40.3267 11.2956 37.972 11.5269C35.7702 11.7432 34.5936 12.8455 33.7013 15.5277L33.1431 17.2057L33.0685 23.4279L32.994 29.65H31.9987H31.0035L30.9545 27.7563L30.9054 25.8626L30.5268 26.9078C30.3186 27.4827 29.9121 28.333 29.6235 28.7973C28.4847 30.6297 26.2938 30.4033 25.8179 28.404C25.6207 27.5752 25.7021 25.0597 25.9678 23.7773C26.1067 23.1065 26.9984 20.2335 27.9493 17.3928C28.9002 14.5521 29.7141 11.8345 29.7579 11.3537C29.8785 10.0305 29.6902 9.93203 27.1737 10.0029L25.0179 10.0637L21.7154 19.911C17.5832 32.2323 16.3021 35.5412 14.9979 37.2621C13.8886 38.7257 12.9357 39.3354 11.1194 39.7436C9.69348 40.0641 7.09275 40.0881 5.70042 39.7936ZM11.3194 37.0244C12.3675 36.615 13.5455 35.4562 14.1958 34.195C14.9875 32.6593 16.4528 29.0159 16.3376 28.8691C16.2887 28.8069 15.8061 29.0744 15.265 29.4635L14.2812 30.1711L11.384 30.0935C6.24411 29.9557 3.74217 29.9709 3.25917 30.1428C2.72949 30.3314 2.11965 31.4404 2.11867 32.2169C2.11844 32.4978 2.35631 33.2973 2.64752 33.9935C3.2732 35.4894 4.42026 36.6038 5.85446 37.1092C6.92431 37.4862 10.27 37.4342 11.3194 37.0244ZM28.7768 28.2161C29.4199 27.5266 29.8665 26.4469 30.5059 24.0366C30.946 22.3775 30.9903 21.937 30.9903 19.2211C30.9903 16.2941 30.858 15.6342 30.5104 16.827C30.415 17.1543 29.9976 18.4534 29.5827 19.7138C28.163 24.0277 27.6052 26.7245 27.8449 28.1152C27.9854 28.9307 28.0989 28.943 28.7768 28.2161ZM20.7922 15.5495L22.6288 10.0637L21.1625 9.92433C20.356 9.84766 18.8083 9.77462 17.7231 9.76201L15.7501 9.73911L15.3096 8.89091C14.7068 7.72998 13.9525 7.04889 12.6479 6.48748C10.6293 5.61877 7.66239 6.15878 6.0976 7.67968C4.51663 9.21632 4.40531 12.482 5.89159 13.7229C6.61729 14.3289 7.77163 14.7236 10.6988 15.367C16.006 16.5334 17.4738 17.4512 18.4275 20.1995C18.6271 20.7748 18.8276 21.1982 18.8729 21.1404C18.9183 21.0826 19.782 18.5667 20.7922 15.5495ZM30.311 7.67971C30.311 7.59851 30.4204 7.22517 30.5542 6.85008C32.0052 2.7819 32.6597 0.894462 32.7607 0.486985C32.8694 0.0484017 32.9899 3.48148e-05 33.9739 3.48148e-05C34.5748 3.48148e-05 35.0664 0.0519959 35.0664 0.115497C35.0664 0.178998 34.44 1.27464 33.6745 2.55027C32.9089 3.82588 31.9101 5.5026 31.4549 6.27631C30.6882 7.57933 30.311 8.04215 30.311 7.67971Z" fill="black"/>
</svg>
