<svg width="162" height="26" viewBox="0 0 162 26" fill="none" xmlns="http://www.w3.org/2000/svg">
<path d="M39.511 25.7241C39.422 25.49 39.4311 25.0936 39.5469 24.1694C39.6638 23.2359 39.8778 22.4885 40.2621 21.6724C40.6604 20.8262 41.1 20.279 42.1976 19.2628L42.6686 18.8267L42.3499 18.8251C41.8028 18.8224 41.5743 18.7519 40.3026 18.1941C39.4187 17.8064 38.177 16.7538 37.5443 15.8558L37.2247 15.4021L36.357 15.2249C35.4146 15.0324 34.4355 14.701 33.7787 14.3522C33.5496 14.2306 33.3466 14.1561 33.3276 14.1868C33.2373 14.333 31.6518 15.5449 30.7466 16.1598C28.8979 17.4154 27.8643 17.9664 26.6252 18.3571C25.7057 18.6469 25.2595 18.7176 24.5793 18.6812C24.0587 18.6533 23.8679 18.6066 23.1908 18.3415C22.759 18.1725 22.1357 17.8889 21.8056 17.7112C21.2777 17.4271 20.5916 17.1951 20.2709 17.1922C20.1813 17.1913 20.1591 17.2945 20.1334 17.829C20.0909 18.7112 19.8688 19.3696 19.3866 20.0429C18.7975 20.8654 18.3318 21.4053 17.98 21.6736C17.6558 21.9208 17.6496 21.9225 17.0766 21.9136C16.4596 21.904 16.152 21.8242 15.406 21.4799C15.0571 21.319 14.744 21.083 14.0914 20.4892C12.748 19.2669 11.9464 18.7613 11.3521 18.7613C10.8465 18.7613 9.8293 19.2768 9.23905 19.8321C8.73498 20.3064 8.62331 20.5198 8.59455 21.0638C8.56548 21.6134 8.40912 21.9123 8.0562 22.0931C7.9249 22.1604 7.70303 22.3067 7.56316 22.4182C7.28099 22.6432 7.09982 22.6706 6.88608 22.5209C6.64669 22.3533 6.64001 22.06 6.86176 21.4524C7.35862 20.091 8.05353 19.2771 9.87649 17.9218C10.6212 17.3682 11.0932 17.1258 11.4268 17.1258C11.7822 17.1258 12.2951 17.3505 12.7974 17.7261C13.3961 18.1737 14.322 18.6474 14.88 18.7915C15.3754 18.9193 16.1962 18.9274 16.2432 18.8048C16.2616 18.7568 16.2979 18.3902 16.3238 17.9902L16.371 17.2628L16.0652 16.6707C15.6517 15.8701 15.5684 15.5764 15.5242 14.7626C15.492 14.172 15.5069 14.0001 15.6234 13.6178C15.7929 13.0611 16.0541 12.6438 16.5675 12.1091C17.0089 11.6494 16.9936 11.5837 16.5229 11.9184C15.791 12.4388 15.1952 13.7048 15.2515 14.6202C15.2608 14.7726 15.2498 14.916 15.2271 14.9387C15.1892 14.9767 14.9648 14.7593 14.0591 13.8072C13.7294 13.4607 12.9509 12.8408 12.4493 12.5256C11.9835 12.2329 10.917 11.7839 10.4015 11.6636C10.0741 11.5872 9.51913 11.5383 8.73333 11.5166C7.39339 11.4795 6.85275 11.5398 4.77553 11.9581C2.48018 12.4202 1.86332 12.4377 1.90914 12.0395C1.92475 11.9039 1.97005 11.8545 2.09338 11.8388C2.35 11.8061 3.61099 11.5009 3.81061 11.4232C4.01479 11.3437 4.04601 11.209 3.87603 11.1409C3.81306 11.1156 3.34942 11.0698 2.8457 11.039C1.86349 10.9789 1.60812 10.9147 1.04669 10.5868C0.614763 10.3345 0 9.75005 0 9.59168C0 9.41334 0.127496 9.17835 0.273826 9.08697C0.347342 9.04105 0.602836 8.93652 0.841573 8.85468C1.08032 8.77283 1.62094 8.58317 2.04295 8.4332C2.46496 8.28324 3.1126 8.11118 3.48215 8.05087L4.15406 7.94119L4.57928 7.50485C5.16196 6.90695 5.54759 6.72184 6.343 6.65823C6.78548 6.62286 7.07502 6.56029 7.3382 6.44318C7.97189 6.16118 8.36602 6.10176 8.97957 6.19568C9.51342 6.2774 9.74731 6.35579 9.74731 6.453C9.74731 6.52306 9.09198 6.72431 8.86387 6.72431C8.59247 6.72431 8.71707 6.80305 9.07426 6.85725C9.30324 6.892 9.50334 6.86951 9.84355 6.77078C10.4191 6.60377 11.4065 6.59352 12.0903 6.74744C12.365 6.80927 12.8541 6.85515 13.2384 6.85515C14.1236 6.85515 14.2491 6.96786 13.859 7.41227C13.6037 7.70293 13.4014 7.8102 12.9924 7.87152C12.7763 7.90393 12.5389 8.01172 12.2539 8.20683C11.7499 8.55188 11.4965 8.65806 10.8921 8.77742L10.4342 8.86785L10.9576 8.87406C11.5439 8.88098 11.8335 8.78195 12.3629 8.39331C12.5472 8.25804 12.815 8.13592 13.0252 8.09137C13.5079 7.98904 13.8152 7.82186 14.0433 7.53749L14.2358 7.2975L14.4985 7.43151C14.8791 7.62567 15.4335 7.80257 16.2891 8.00288C17.0075 8.17104 17.1138 8.17851 18.6442 8.16818C20.5023 8.15564 20.727 8.18804 22.8964 8.78106C25.1385 9.39398 25.3754 9.43423 26.756 9.43687C27.4217 9.43813 28.0231 9.41599 28.0926 9.38763C28.2053 9.34166 28.1769 9.29313 27.8309 8.93948C27.4143 8.51363 25.9056 7.21432 25.9056 7.28137C25.9056 7.30364 25.7805 7.221 25.6276 7.09774C25.1905 6.74539 24.013 5.97648 23.5613 5.74848C22.8127 5.37061 21.8996 5.21275 20.1161 5.15287C18.2632 5.09066 18.0075 5.0328 17.5752 4.57791C17.4428 4.43867 17.3278 4.38236 17.1757 4.38236C16.7796 4.38236 16.4345 4.12147 16.1631 3.61696C16.0857 3.47304 15.9636 3.26245 15.8918 3.14899C15.8199 3.03552 15.7437 2.7958 15.7225 2.61624C15.6873 2.31915 15.6985 2.28013 15.8474 2.18261C15.9373 2.12366 16.1692 2.05869 16.3626 2.03824C16.5561 2.01777 16.7979 1.94233 16.9 1.87057C17.1857 1.66981 17.4292 1.61743 18.3498 1.55878C19.423 1.49039 19.8486 1.34581 20.1944 0.932089C20.4682 0.604527 20.6873 0.501637 21.4245 0.354398C23.1534 0.00907051 25.1809 -0.0398936 25.2387 0.262285C25.253 0.337024 25.1874 0.40809 25.0432 0.474005L24.8262 0.573223L25.117 0.533518C25.2769 0.511678 25.5578 0.44217 25.7412 0.37907C26.3482 0.170206 26.9994 0.0963819 27.8354 0.141645C28.6221 0.184245 30.1505 0.391491 30.2833 0.473588C30.4423 0.57184 30.2909 1.03294 30.0997 1.03294C30.073 1.03294 29.8763 1.19595 29.6628 1.39519C29.1597 1.86471 28.8953 1.99917 28.3691 2.05307C27.9637 2.09461 27.9187 2.11659 27.5925 2.43185C27.402 2.61592 27.1874 2.8044 27.1156 2.85068C26.9965 2.92745 27.0022 2.93159 27.1813 2.898C27.296 2.87647 27.4726 2.75481 27.6065 2.60502C27.7324 2.46413 27.9183 2.31772 28.0196 2.27966C28.4875 2.10388 29.1178 2.25509 29.8961 2.72982C30.681 3.20853 31.4637 3.5852 31.8754 3.68226C32.3909 3.80379 33.2084 3.80354 34.0502 3.68136C34.41 3.62924 35.0197 3.58601 35.4051 3.58531C36.5432 3.58324 37.3281 3.35547 40.027 2.24411C42.9487 1.04094 44.2452 0.613904 45.8909 0.312662C48.0276 -0.0784679 48.6934 -0.0933635 50.2048 0.216146C52.1879 0.622261 53.5133 1.28319 54.9474 2.58123C55.392 2.98365 56.5671 4.29889 57.0168 4.89747C57.1634 5.09257 57.6235 5.7085 58.0393 6.26619C58.976 7.52255 59.3033 7.86452 60.0108 8.32566C60.6504 8.74257 61.1848 8.96053 61.9448 9.11455C62.4599 9.21892 62.5026 9.21785 63.1796 9.08348C64.0489 8.91095 64.7027 8.60912 65.8113 7.86856C66.2616 7.5677 66.7622 7.26497 66.9237 7.19583C67.3327 7.02067 68.0244 6.85496 68.3466 6.85496C69.3428 6.85496 70.6324 7.55235 71.0418 8.31249C71.1151 8.44852 71.175 8.57363 71.175 8.59052C71.175 8.6919 70.9846 8.57991 70.6735 8.29558C70.1248 7.79412 69.6166 7.68047 68.747 7.8648C68.0285 8.0171 67.4518 8.33816 65.9743 9.40835C65.0298 10.0925 64.5031 10.3894 63.8417 10.6105C63.1315 10.8479 62.1457 10.9967 61.5832 10.9514C60.7251 10.8824 59.5383 10.5941 58.8478 10.2869C58.4903 10.1278 58.1941 10.0044 58.1897 10.0127C57.9863 10.3915 57.6241 10.8331 57.1201 11.3169C55.7732 12.6097 54.4939 13.1762 53.5122 12.9146C53.3143 12.8619 53.146 12.8252 53.1382 12.833C53.1075 12.8637 53.8091 13.9121 54.1579 14.3567C54.5165 14.8139 54.5354 14.8273 54.8859 14.8741C55.0838 14.9006 55.5989 14.9249 56.0307 14.9281C57.0783 14.9361 57.5184 14.7869 58.1692 14.2033C58.9197 13.5304 59.5745 13.2977 59.9232 13.58C60.0622 13.6925 60.0651 13.715 59.9883 14.0869C59.8198 14.903 59.5277 15.1943 58.353 15.7176C57.5799 16.0621 56.8348 16.2475 55.96 16.3131L55.3659 16.3577L55.5307 16.758C55.7649 17.3272 55.7548 17.614 55.4922 17.8486C55.0632 18.2319 54.148 18.3313 52.7598 18.1454C52.4 18.0972 52.0956 18.0666 52.0834 18.0773C52.0201 18.1329 53.1575 18.7217 53.6102 18.8678C54.2341 19.069 54.3513 19.0719 54.9096 18.8994C55.3905 18.7509 56.2011 18.7069 56.4688 18.8149C56.5659 18.854 56.6926 18.9582 56.7503 19.0463C56.8437 19.1889 56.8449 19.2317 56.7605 19.4336C56.5251 19.9971 55.4752 20.4236 54.1422 20.4973C53.8523 20.5133 53.511 20.5631 53.3837 20.6079C53.0642 20.7203 51.9978 20.7001 51.0916 20.5644C48.3419 20.1525 46.8454 19.6788 45.5809 18.8198C45.0329 18.4476 44.9795 18.4656 45.0347 19.0044C45.0863 19.508 45.2633 19.954 45.5182 20.2226C45.8343 20.5558 46.1378 20.6633 46.9303 20.7231C47.4739 20.7641 47.77 20.8222 48.0845 20.9497C49.0613 21.3458 49.516 21.9028 49.1954 22.3104C48.9798 22.5844 48.7135 22.5971 48.0545 22.3645C47.5712 22.1939 47.3882 22.1628 46.8665 22.1628C46.5273 22.1628 45.953 22.2074 45.5902 22.2619C44.8066 22.3796 44.4997 22.3247 44.2184 22.0167C44.0218 21.8015 43.7273 21.0846 43.6584 20.6538C43.6355 20.5107 43.5939 20.3795 43.566 20.3622C43.4942 20.3179 42.9485 20.7652 42.5111 21.2268C41.7487 22.0316 41.2732 22.9643 41.1151 23.965C40.9423 25.0593 40.7953 25.3523 40.2435 25.7023C39.8606 25.9451 39.598 25.9528 39.511 25.7238V25.7241ZM40.2586 25.169C40.5201 24.9394 40.579 24.7825 40.721 23.9365C40.8842 22.9641 41.2677 22.1279 41.9505 21.2552C42.339 20.7587 42.8193 20.3082 43.2125 20.0714C43.3544 19.986 43.4792 19.9099 43.49 19.9024C43.5198 19.8816 43.3631 19.0229 43.3296 19.0229C43.0731 19.0229 41.9013 20.0453 41.3801 20.7238C40.4865 21.887 40.0713 22.9861 39.9111 24.6124C39.8296 25.439 39.8726 25.5079 40.2586 25.169ZM48.802 22.0084C48.802 21.8943 48.418 21.6293 47.9302 21.4068C47.6408 21.2748 47.3834 21.2197 46.8611 21.1779C45.9542 21.1053 45.6039 20.983 45.2167 20.6036C44.8904 20.2838 44.7345 19.9009 44.6464 19.2028L44.6072 18.8921L44.3005 18.8931C43.8408 18.8946 43.8321 18.909 43.9025 19.5468C44.0076 20.4989 44.3019 21.3955 44.5919 21.6468C44.7878 21.8166 44.9742 21.8309 45.7145 21.7331C46.9356 21.5719 47.6031 21.6209 48.3277 21.9249C48.786 22.1172 48.802 22.1201 48.802 22.0084ZM52.3615 19.9709C51.9768 19.7704 51.6442 19.5619 51.1774 19.2285C51.052 19.1391 50.7589 19.0638 50.2566 18.9923C49.4447 18.8766 48.5714 18.644 48.0163 18.3955L47.6559 18.2342L47.264 18.3696C47.0485 18.4441 46.6407 18.5232 46.3578 18.5453L45.8435 18.5855L46.0961 18.7388C46.7979 19.1646 48.0906 19.5699 49.6851 19.8642C51.1412 20.133 52.1138 20.251 52.54 20.2106L52.7782 20.1881L52.3615 19.9709ZM50.1103 18.2308C49.9125 18.0503 49.6271 17.8205 49.4762 17.7203L49.2019 17.5381L49.6071 17.2389C49.8299 17.0743 50.1435 16.8049 50.3039 16.6403L50.5955 16.3408H51.4715C52.1482 16.3408 52.399 16.3164 52.5738 16.2334C52.6983 16.1743 52.7763 16.1043 52.7473 16.0778C52.6725 16.0097 51.7433 15.8829 51.3189 15.8829C50.9398 15.8829 50.9074 15.9032 49.5283 17.007C49.3627 17.1396 48.9675 17.4247 48.65 17.6406L48.0728 18.0333L48.5519 18.1773C48.952 18.2976 50.177 18.5484 50.4047 18.5567C50.4407 18.558 50.3082 18.4114 50.1103 18.2308ZM44.0154 18.4424C44.0743 18.4051 44.0154 18.3732 43.8323 18.344C43.3925 18.2737 42.3274 17.9123 41.8349 17.6663C40.5964 17.0478 39.2938 15.8022 38.1225 14.1166C37.4718 13.1801 37.0863 12.7803 36.6058 12.5438C36.3696 12.4275 36.1239 12.3508 36.0362 12.366C35.8906 12.3912 35.8893 12.3955 36.0127 12.4425C36.7698 12.7304 37.12 13.0525 37.9402 14.2149C39.6368 16.6195 41.4767 18.0828 43.2741 18.4572C43.5122 18.5067 43.9269 18.4985 44.0154 18.4424ZM54.9392 17.6481C55.2447 17.5167 55.2783 17.4819 55.2777 17.2977C55.2768 17.0825 55.0145 16.453 54.8944 16.3788C54.8558 16.3549 54.5657 16.3065 54.2499 16.2713C53.934 16.2361 53.5857 16.191 53.4758 16.171C53.3062 16.1402 53.264 16.1608 53.1974 16.307C53.1498 16.4114 52.9966 16.5357 52.8085 16.6225C52.5389 16.7469 52.3847 16.7658 51.6346 16.7659C51.0921 16.766 50.7443 16.7929 50.6989 16.8382C50.6461 16.8909 50.7332 17.0028 51.0208 17.252L51.415 17.5935L52.0547 17.6558C52.4065 17.69 52.9004 17.7447 53.1523 17.7772C53.8524 17.8677 54.5451 17.8177 54.9392 17.6481ZM48.545 15.0351C48.7403 14.9609 48.9686 14.8471 49.0523 14.7823L49.2044 14.6646L48.9421 14.4828C48.5742 14.2279 48.0097 13.6212 47.7224 13.1721C47.1697 12.3081 46.9655 11.6094 46.9112 10.3971L46.8721 9.52328L46.2834 9.31176C45.9596 9.19543 45.5916 9.06753 45.4657 9.02752C45.1568 8.92942 44.5498 8.85457 44.5498 8.91458C44.5498 8.94116 44.6974 9.12441 44.8778 9.32181C45.6255 10.1399 45.7032 10.4407 45.7532 12.7132C45.7738 13.6504 45.8098 14.5128 45.8332 14.6296C45.881 14.8684 46.0456 14.9773 46.5928 15.1318C47.0678 15.266 48.0682 15.2164 48.545 15.0351ZM36.694 14.5132C36.3106 13.8309 35.5826 13.2661 35.0865 13.2661C34.8303 13.2661 34.2114 13.4885 34.0071 13.6539L33.8605 13.7726L34.0598 13.8757C34.5765 14.1429 35.6146 14.5135 36.1763 14.6312C36.5181 14.7028 36.807 14.7636 36.8183 14.7661C36.8296 14.7686 36.7737 14.6548 36.694 14.5132ZM53.4099 14.1159C52.8517 13.3414 52.6186 12.8369 52.524 12.1986C52.4633 11.7893 52.4652 11.6552 52.5332 11.528C52.58 11.4406 52.6502 11.3703 52.6891 11.3718C52.728 11.3733 52.8628 11.584 52.9887 11.8398C53.2914 12.4548 53.4814 12.5655 54.1726 12.5297C54.5875 12.5082 54.7497 12.4633 55.1539 12.2584C56.1958 11.7302 57.2304 10.7498 57.6205 9.92081C57.7889 9.56294 57.8977 9.4068 57.9787 9.40666C58.0427 9.40666 58.4106 9.55034 58.7964 9.72619C59.683 10.1303 60.4044 10.3578 61.1022 10.4534C62.2764 10.6141 63.8406 10.2324 64.8736 9.53287C65.0472 9.41531 65.4689 9.10819 65.8107 8.85038C66.6688 8.20317 67.2417 7.85178 67.7938 7.63392C68.1661 7.487 68.2231 7.4481 68.0676 7.44688C67.606 7.44328 67.0174 7.7043 66.0711 8.33239C64.3255 9.49099 63.0449 9.82081 61.6128 9.48068C60.9049 9.31256 60.2344 9.05945 59.8594 8.81878C59.3326 8.48079 58.1456 7.19655 57.2582 6.00471C55.3157 3.39581 54.1062 2.2258 52.5635 1.46358C51.3905 0.883983 49.8165 0.509592 48.5528 0.509592C47.7252 0.509592 45.9771 0.779302 44.7904 1.09011C43.9494 1.31034 42.0817 1.96494 41.0929 2.38598C39.2011 3.19155 37.629 3.74547 36.686 3.93879C36.4087 3.99565 35.8691 4.04217 35.4869 4.04217C35.1047 4.04217 34.4338 4.08948 33.9959 4.14729C32.6005 4.33152 31.6956 4.19471 30.6419 3.64017C28.9493 2.74939 28.9144 2.73381 28.6166 2.73381C28.3517 2.73381 28.2949 2.7634 28.0443 3.03248C27.8227 3.27041 27.7098 3.33871 27.4891 3.36832C26.9162 3.44515 25.9638 3.11619 25.7748 2.77622C25.6876 2.6193 25.6876 2.59271 25.7748 2.53692C25.8287 2.50238 26.0054 2.47145 26.1673 2.46816C26.6699 2.45795 26.9094 2.33061 27.3585 1.83479C27.5442 1.6297 27.7695 1.55668 28.2198 1.55567C28.5266 1.55477 29.0342 1.2927 29.3268 0.983675L29.5097 0.790434L28.8501 0.715428C28.4874 0.674176 27.8899 0.640885 27.5224 0.641443C26.871 0.642432 26.6578 0.679291 25.6439 0.966205C24.9655 1.1582 24.2673 1.17401 24.0761 1.00169C23.9761 0.911536 23.9406 0.817868 23.959 0.692622C23.9815 0.539149 23.9655 0.517247 23.8497 0.542577C23.7751 0.558894 23.2431 0.630844 22.6674 0.702471C21.3076 0.871667 20.9631 0.975237 20.6868 1.29805C20.2836 1.76904 19.3239 2.07852 18.2933 2.06997C17.7677 2.06565 17.683 2.08338 17.3181 2.27466C17.0802 2.39937 16.7771 2.49874 16.5692 2.5202C16.3771 2.54003 16.2054 2.57972 16.1877 2.6084C16.1699 2.63708 16.2402 2.758 16.3438 2.87708C16.4473 2.99618 16.568 3.20391 16.6119 3.33872C16.7147 3.6548 16.9009 3.7805 17.266 3.7805C17.5291 3.7805 17.5868 3.81025 17.8238 4.0681C18.1531 4.42643 18.3574 4.48445 19.4619 4.53337C21.4198 4.62011 22.7963 4.85233 23.6266 5.23599C24.7088 5.73597 26.4907 7.06877 27.8861 8.42197L28.8232 9.33075L29.2779 9.20348C32.0822 8.41861 35.4602 7.65574 37.3211 7.38709C38.6164 7.20009 39.8234 7.24534 40.9378 7.52264C41.4424 7.6482 41.6657 7.66311 42.8816 7.65241C44.7888 7.63562 45.4846 7.76224 46.7441 8.35532L47.1395 8.54148L47.3905 8.00906C47.587 7.59238 47.7499 7.36874 48.14 6.98036C48.7983 6.32493 49.3217 6.06007 50.0408 6.01844C50.6213 5.98483 50.9887 6.09382 50.5336 6.16463C49.2828 6.35926 48.3362 7.00202 47.8611 7.97937C47.4672 8.78982 47.4354 8.71252 48.3933 9.27246C50.4624 10.482 51.4061 10.7993 52.4818 10.6474C53.0542 10.5665 53.5817 10.3186 54.8791 9.52064C55.2198 9.31109 55.064 9.52154 54.5285 9.99345C53.9789 10.4782 53.4832 10.787 52.8821 11.0192C52.5118 11.1623 52.2936 11.1981 51.6426 11.223C50.5212 11.2659 50.0636 11.1425 48.619 10.4074C47.9967 10.0908 47.4594 9.82187 47.4251 9.80988C47.3894 9.79738 47.3628 9.98711 47.3628 10.2542C47.3628 11.7597 48.1279 13.2523 49.3836 14.1965L49.6055 14.3633L49.8956 14.1418C50.2768 13.8508 50.6131 13.8437 51.1775 14.1146C51.4001 14.2214 51.7883 14.3568 52.0402 14.4154C52.5728 14.5394 53.7974 14.7595 53.8261 14.7364C53.8369 14.7276 53.6496 14.4484 53.4099 14.1159ZM45.333 12.8409C45.2618 10.6142 45.2556 10.5907 44.4631 9.54678L43.9985 8.9348L43.6036 8.97693C43.0287 9.03826 42.4584 9.15412 42.4192 9.21756C42.4004 9.24787 42.5348 9.46797 42.7177 9.70666C43.1771 10.3059 43.3033 10.5791 43.7243 11.8854C44.1567 13.2267 44.4243 13.7376 44.9647 14.2535C45.1838 14.4626 45.3689 14.6276 45.3762 14.6204C45.3835 14.6131 45.364 13.8123 45.333 12.8409ZM11.4155 20.8791C11.15 20.7454 10.9404 20.7039 10.3034 20.659C9.56555 20.6071 9.02771 20.4721 9.02771 20.3388C9.02771 20.2599 9.52454 19.8114 9.88994 19.5604C10.1644 19.3718 10.2444 19.35 10.6628 19.35C10.9929 19.35 11.2236 19.3096 11.451 19.2117C11.638 19.1313 11.836 19.0894 11.9244 19.1116C12.0894 19.153 13.198 19.9249 13.3425 20.0989C13.4196 20.1918 13.4021 20.2358 13.2095 20.4346C12.9397 20.7129 12.2453 21.0522 11.955 21.0475C11.8382 21.0456 11.5954 20.9698 11.4155 20.8791ZM1.10372 19.8124C0.973178 19.7408 0.847969 19.6342 0.825481 19.5756C0.754304 19.3901 0.982597 19.1176 1.49684 18.7743C2.28986 18.245 2.89333 18.1115 4.66783 18.0732C5.44424 18.0564 6.41167 18.0709 6.81765 18.1055C7.5434 18.1673 8.50579 18.4057 8.54871 18.5345C8.56063 18.5703 8.27815 18.8907 7.92097 19.2466L7.27155 19.8935L7.0682 19.7224C6.67471 19.3913 5.55301 19.1903 4.35937 19.2371C3.63254 19.2655 3.49448 19.2887 3.34538 19.4075C2.83823 19.8116 2.64117 19.8846 1.97898 19.9142C1.43107 19.9386 1.30759 19.9242 1.10372 19.8124ZM14.4214 18.409C13.8701 18.1831 13.2613 17.8236 12.9077 17.515C12.7929 17.4149 12.6478 17.3043 12.5852 17.2693C12.4773 17.2089 12.4777 17.1756 12.5929 16.627C12.6596 16.3088 12.7977 15.8899 12.8996 15.6961C13.0943 15.326 13.6036 14.655 13.8989 14.3795L14.0728 14.2172L14.4123 14.5806C14.5991 14.7805 14.886 15.0351 15.0501 15.1463C15.3089 15.3219 15.3588 15.3941 15.4278 15.6928C15.4714 15.882 15.639 16.2959 15.8 16.6124C16.1569 17.3137 16.1704 17.5259 15.8793 17.8576C15.6414 18.1286 15.0622 18.6319 14.9932 18.6276C14.9684 18.6261 14.7111 18.5277 14.4214 18.409Z" fill="black"/>
<path d="M146.742 25.7123C146.465 25.6144 146.265 25.5082 146.297 25.4764C146.376 25.3972 147.168 25.6663 147.251 25.8006C147.288 25.8601 147.302 25.9047 147.282 25.8996C147.262 25.8945 147.019 25.8103 146.742 25.7123ZM78.3078 22.2737C77.5095 22.1412 76.1732 21.4389 75.5478 20.8231C75.2834 20.5627 74.9136 20.0373 74.7262 19.6554C74.4399 19.0724 74.3859 18.821 74.3888 18.0855C74.3941 16.7514 74.8695 15.9922 75.8894 15.6893C76.3748 15.5452 77.0942 15.5274 80.1582 15.584L83.8432 15.6519L84.4488 15.2942C85.2276 14.8342 85.6259 14.3033 85.7942 13.501C85.9098 12.9499 85.8996 12.782 85.7222 12.3174C85.34 11.3167 84.6772 11.0113 81.7856 10.5033C80.6696 10.3072 79.4085 10.0503 78.9831 9.93234C77.0072 9.38423 76.0852 8.22518 76.2249 6.46487C76.3554 4.82119 77.4807 3.59239 79.4062 2.99111C80.0429 2.79227 80.5073 2.7366 81.5079 2.73917C83.6228 2.74462 85.0566 3.33399 86.034 4.59958L86.5287 5.2402L87.2877 5.23924C89.454 5.23656 90.6469 4.37418 91.7235 2.03264C91.9886 1.45611 92.2681 0.944594 92.3446 0.895953C92.5299 0.778107 93.8264 0.778528 93.8264 0.896433C93.8264 0.947306 93.4061 1.97633 92.8923 3.18317C92.3786 4.39 91.9582 5.38615 91.9582 5.39682C91.9581 5.4075 93.1388 5.3981 94.5818 5.37582L97.2054 5.33543L97.2382 6.81057L97.271 8.28571L97.7822 7.58319C98.7011 6.32048 99.8195 5.71526 101.241 5.71157C102.263 5.70892 102.765 5.84645 103.479 6.32432C104.174 6.78983 104.729 7.61518 105.067 8.6857C105.309 9.45296 105.325 9.71899 105.326 13.0252C105.328 14.9624 105.301 16.5717 105.269 16.6013C105.237 16.631 104.909 16.6792 104.539 16.7085L103.868 16.7618V13.2996C103.868 10.4856 103.834 9.72117 103.684 9.21673C103.222 7.66053 102.113 6.89825 100.495 7.02305C98.9808 7.13976 98.1719 7.73444 97.5585 9.1816L97.1748 10.0869L97.1235 13.4439L97.0722 16.801H96.388H95.7038L95.67 15.7793L95.6363 14.7576L95.376 15.3215C95.2329 15.6317 94.9534 16.0904 94.755 16.3409C93.972 17.3296 92.4658 17.2074 92.1387 16.1287C92.003 15.6816 92.059 14.3244 92.2417 13.6325C92.3372 13.2706 92.9502 11.7205 93.604 10.1879C94.2577 8.65524 94.8172 7.18902 94.8474 6.9296C94.9303 6.21566 94.8008 6.16256 93.0707 6.20082L91.5886 6.2336L89.3181 11.5465C86.4772 18.1942 85.5965 19.9795 84.6998 20.9079C83.9372 21.6976 83.2821 22.0265 82.0333 22.2468C81.053 22.4197 79.265 22.4326 78.3078 22.2737ZM82.1708 20.7797C82.8914 20.5588 83.7013 19.9336 84.1483 19.2531C84.6927 18.4246 85.7 16.4588 85.6208 16.3796C85.5873 16.3461 85.2555 16.4904 84.8835 16.7004L84.2071 17.0821L82.2153 17.0402C78.6816 16.9659 76.9615 16.9741 76.6294 17.0669C76.2652 17.1686 75.846 17.767 75.8453 18.1859C75.8451 18.3374 76.0087 18.7688 76.2089 19.1444C76.639 19.9515 77.4277 20.5528 78.4137 20.8254C79.1492 21.0288 81.4494 21.0008 82.1708 20.7797ZM94.1729 16.0274C94.615 15.6554 94.9221 15.0728 95.3616 13.7724C95.6642 12.8773 95.6947 12.6396 95.6947 11.1743C95.6947 9.59507 95.6037 9.23902 95.3647 9.88259C95.2992 10.0592 95.0122 10.7601 94.727 11.4401C93.7509 13.7676 93.3674 15.2226 93.5322 15.9729C93.6288 16.4129 93.7068 16.4195 94.1729 16.0274ZM88.6834 9.19335L89.9461 6.23362L88.938 6.1584C88.3835 6.11704 87.3195 6.07763 86.5734 6.07083L85.217 6.05847L84.9142 5.60084C84.4997 4.97449 83.9811 4.60702 83.0842 4.30412C81.6964 3.83543 79.6566 4.12678 78.5808 4.94735C77.4939 5.77641 77.4174 7.53832 78.4392 8.20787C78.9381 8.53478 79.7317 8.74778 81.7442 9.09488C85.3929 9.72421 86.402 10.2194 87.0577 11.7022C87.1949 12.0126 87.3327 12.241 87.3639 12.2098C87.3951 12.1786 87.9889 10.8212 88.6834 9.19335ZM155.37 17.3227C155.022 17.2255 154.549 17.0341 154.319 16.8973C153.729 16.546 152.822 15.6541 152.529 15.1349C152.392 14.8929 152.243 14.709 152.199 14.7262C152.154 14.7435 151.94 14.9925 151.722 15.2797C151.206 15.9593 150.511 16.4819 149.672 16.8204C149.004 17.0903 148.959 17.0925 145.088 17.0522C141.554 17.0154 141.121 16.9896 140.569 16.7829C139.894 16.5305 139.463 16.0941 139.088 15.2839C138.862 14.7956 138.842 14.5106 138.804 11.3346L138.764 7.91168L138.393 7.9916C137.112 8.26718 134.429 9.97364 132.738 11.5883C132.282 12.0237 132.242 12.11 132.243 12.6509C132.244 13.565 132.462 14.7275 132.692 15.0495C133.069 15.5773 133.608 15.7743 134.46 15.6963C134.878 15.6581 135.393 15.5956 135.605 15.5575L135.991 15.4881L135.955 16.1151L135.92 16.742L135.336 16.8771C133.803 17.2317 132.323 16.9281 131.657 16.1221C131.265 15.6492 130.84 14.4396 130.84 13.7988V13.39L129.902 14.249C126.739 17.1454 125.113 17.7061 124.92 15.9675C124.851 15.3439 125.035 14.8401 126.572 11.449C127.321 9.79623 127.688 8.853 127.661 8.64658C127.628 8.39479 127.49 8.60277 126.937 9.73662C126.561 10.5073 125.991 11.5845 125.67 12.1303C125.35 12.6762 124.924 13.4038 124.724 13.7472C124.17 14.6977 122.956 16.0543 122.199 16.5682C120.847 17.4862 119.086 17.5094 117.926 16.6246C117.718 16.4658 117.399 16.0333 117.217 15.6635L116.887 14.9911L116.829 11.2546L116.77 7.51805L116.012 7.45967L115.253 7.40128V6.81745V6.23362L116.012 6.17523L116.77 6.11685L116.804 4.91999L116.837 3.72313H117.529H118.222L118.255 4.91999L118.288 6.11685L120.954 6.14826L123.621 6.17967L123.975 5.8813C124.999 5.01955 126.424 4.72501 127.051 5.24539C127.238 5.40095 127.528 6.17589 127.627 6.78826C127.69 7.17603 127.737 7.22614 128.034 7.22614C128.287 7.22614 128.462 7.10835 128.751 6.74403C129.188 6.19232 129.693 5.9417 130.37 5.9417H130.84V4.71565V3.4896H131.541H132.242V4.65726V5.82493L134.898 5.8259C136.359 5.82638 137.83 5.86004 138.167 5.90054L138.78 5.97417V4.73186V3.48954H139.477H140.173L140.207 4.68641L140.24 5.88327L142.05 5.94165L143.86 6.00004V6.58392V7.16775L142.05 7.22614L140.24 7.28452L140.242 10.7875C140.243 14.6887 140.273 14.8722 141.016 15.4293C141.471 15.7705 142.625 15.9382 143.598 15.8044C144.118 15.7329 144.171 15.7024 143.996 15.5746C143.613 15.2945 142.902 13.7258 142.75 12.8269C142.206 9.59919 143.601 6.82069 146.157 6.04453C147.211 5.72416 148.779 5.77654 149.786 6.16579C150.567 6.46789 151.609 7.36634 152.049 8.11743C152.213 8.39788 152.382 8.62592 152.424 8.6242C152.466 8.62246 152.632 8.40607 152.793 8.14331C153.171 7.52339 153.864 6.95906 154.728 6.56695C155.711 6.12084 157.346 6.0449 158.478 6.39282C160.79 7.10327 162.228 9.58585 161.97 12.4223C161.763 14.7082 160.58 16.4633 158.777 17.1605C157.907 17.497 156.274 17.5747 155.371 17.3227H155.37ZM158.456 15.8028C159.7 15.2143 160.374 14.0114 160.472 12.2021C160.597 9.90132 159.772 8.32697 158.116 7.70731C156.523 7.11146 154.681 7.69493 153.889 9.04595C153.196 10.2288 152.986 11.7445 153.319 13.1578C153.532 14.0612 153.733 14.4601 154.279 15.0649C155.302 16.1967 156.992 16.4954 158.456 15.8028ZM119.807 15.6354C119.304 14.6628 119.587 12.8737 120.594 10.6566C121.184 9.35633 122.031 7.92797 122.316 7.75194C122.7 7.51472 122.273 7.45674 120.361 7.48616L118.288 7.51805L118.257 10.4367C118.212 14.6042 118.347 15.2985 119.289 15.7791C119.894 16.0877 120.023 16.0521 119.807 15.6354ZM127.826 15.177C128.296 14.7976 129.166 14.0174 129.76 13.4433L130.84 12.3994V9.81278V7.22614H130.533C130.124 7.22614 129.596 7.79848 129.066 8.81583C128.543 9.81899 127.048 13.3167 126.679 14.3986C126.107 16.0782 126.435 16.3009 127.826 15.177ZM149.369 15.4526C150.097 15.0967 150.623 14.5244 151.021 13.6543C151.263 13.1267 151.327 12.7759 151.369 11.7525C151.414 10.67 151.384 10.3811 151.15 9.65003C150.787 8.51597 149.924 7.61324 148.897 7.29285C147.116 6.73757 145.345 7.50413 144.556 9.17203C143.992 10.3651 143.96 12.4427 144.487 13.6731C145.294 15.5547 147.508 16.3618 149.369 15.4526ZM122.184 14.9277C123.391 13.9193 124.446 12.4169 125.693 9.93162C126.583 8.15822 126.888 6.6767 126.454 6.24196C125.994 5.78214 124.854 6.25204 124.026 7.24287C123.009 8.45981 121.736 10.9634 121.199 12.8054C120.913 13.7882 120.792 15.1056 120.963 15.3824C121.125 15.6443 121.488 15.5091 122.184 14.9277ZM133.511 9.94096C134.903 8.84627 136.021 8.03145 136.599 7.6902C136.836 7.55072 137.029 7.41885 137.029 7.39715C137.029 7.37544 135.952 7.35328 134.635 7.3479L132.242 7.33812V9.09202C132.242 10.0567 132.268 10.8459 132.301 10.8459C132.334 10.8459 132.878 10.4387 133.511 9.94096ZM95.2276 4.94737C95.2276 4.90355 95.3029 4.70213 95.3948 4.49976C96.3924 2.30485 96.8424 1.28652 96.9118 1.06668C96.9866 0.83005 97.0694 0.803955 97.7459 0.803955C98.159 0.803955 98.497 0.83199 98.497 0.86625C98.497 0.900511 98.0664 1.49164 97.54 2.17988C97.0137 2.86811 96.327 3.77275 96.014 4.19019C95.487 4.8932 95.2276 5.14291 95.2276 4.94737Z" fill="black"/>
</svg>
